<?xml version="1.0" encoding="UTF-8"?>
<!-- Generated by Pixelmator Pro 2.4.1 -->
<svg width="150" height="150" viewBox="0 0 150 150" xmlns="http://www.w3.org/2000/svg" xmlns:xlink="http://www.w3.org/1999/xlink">
    <path id="--" fill="#b4afaa" fill-rule="evenodd" stroke="none" d="M 76.237213 13.811523 L 76.237213 57.752678 L 92.824265 57.752678 C 99.032318 57.752678 103.817619 55.845024 107.180321 52.029655 C 110.543015 48.214294 112.224335 42.798492 112.224335 35.782104 C 112.224335 28.765709 110.543015 23.349915 107.180321 19.534546 C 103.817619 15.719177 99.032318 13.811523 92.824265 13.811523 Z M 63.142162 94.903809 L 63.142162 0.813477 L 92.824265 0.813477 C 103.753029 0.813477 112.030304 3.771957 117.656357 9.689011 C 123.282402 15.606064 126.095383 24.287506 126.095383 35.733604 C 126.095383 47.24437 123.282402 55.941978 117.656357 61.826691 C 112.030304 67.711411 103.753029 70.653725 92.824265 70.653725 L 76.237213 70.653725 L 76.237213 95.097809 L 93.600273 76.279747 L 111.060333 76.279747 L 78.565216 111.684868 L 112.709335 149.223999 L 95.346275 149.223999 L 76.334213 128.465927 L 76.334213 149.223999 L 63.142162 149.223999 L 63.142162 127.107918 L 42.869095 149.223999 L 25.506033 149.223999 L 60.426155 111.005859 L 28.416042 76.279747 L 45.973103 76.279747 Z"/>
</svg>
